<?xml version="1.0" encoding="UTF-8" standalone="no"?>
<!-- Created with Inkscape (http://www.inkscape.org/) -->

<svg
   xmlns:dc="http://purl.org/dc/elements/1.1/"
   xmlns:cc="http://creativecommons.org/ns#"
   xmlns:rdf="http://www.w3.org/1999/02/22-rdf-syntax-ns#"
   xmlns:svg="http://www.w3.org/2000/svg"
   xmlns="http://www.w3.org/2000/svg"
   xmlns:sodipodi="http://sodipodi.sourceforge.net/DTD/sodipodi-0.dtd"
   xmlns:inkscape="http://www.inkscape.org/namespaces/inkscape"
   width="286.66724"
   height="251.59811"
   id="svg3176"
   sodipodi:version="0.32"
   inkscape:version="0.47 r22583"
   sodipodi:docname="Precordial_Leads_2.svg"
   inkscape:output_extension="org.inkscape.output.svg.inkscape"
   version="1.0"
   inkscape:export-filename="D:\Graphics\Wiki\Precordial_Leads\Precordial_Leads.png"
   inkscape:export-xdpi="139.85001"
   inkscape:export-ydpi="139.85001">
  <defs
     id="defs3178">
    <inkscape:perspective
       sodipodi:type="inkscape:persp3d"
       inkscape:vp_x="0 : 149.51117 : 1"
       inkscape:vp_y="0 : 1000 : 0"
       inkscape:vp_z="411.875 : 149.51117 : 1"
       inkscape:persp3d-origin="205.9375 : 99.674113 : 1"
       id="perspective225" />
    <marker
       inkscape:stockid="Arrow2Mend"
       orient="auto"
       refY="0"
       refX="0"
       id="Arrow2Mend"
       style="overflow:visible">
      <path
         id="path32066"
         style="font-size:12px;fill-rule:evenodd;stroke-width:0.625;stroke-linejoin:round"
         d="M 8.7185878,4.0337352 -2.2072895,0.01601326 8.7185884,-4.0017078 c -1.7454984,2.3720609 -1.7354408,5.6174519 -6e-7,8.035443 z"
         transform="scale(-0.6,-0.6)" />
    </marker>
    <marker
       inkscape:stockid="Arrow1Send"
       orient="auto"
       refY="0"
       refX="0"
       id="Arrow1Send"
       style="overflow:visible">
      <path
         id="path32054"
         d="M 0,0 5,-5 -12.5,0 5,5 0,0 z"
         style="fill-rule:evenodd;stroke:#000000;stroke-width:1pt;marker-start:none"
         transform="matrix(-0.2,0,0,-0.2,-1.2,0)" />
    </marker>
    <marker
       inkscape:stockid="Arrow2Lstart"
       orient="auto"
       refY="0"
       refX="0"
       id="Arrow2Lstart"
       style="overflow:visible">
      <path
         id="path32057"
         style="font-size:12px;fill-rule:evenodd;stroke-width:0.625;stroke-linejoin:round"
         d="M 8.7185878,4.0337352 -2.2072895,0.01601326 8.7185884,-4.0017078 c -1.7454984,2.3720609 -1.7354408,5.6174519 -6e-7,8.035443 z"
         transform="matrix(1.1,0,0,1.1,1.1,0)" />
    </marker>
    <marker
       inkscape:stockid="Arrow2Lend"
       orient="auto"
       refY="0"
       refX="0"
       id="Arrow2Lend"
       style="overflow:visible">
      <path
         id="path32060"
         style="font-size:12px;fill-rule:evenodd;stroke-width:0.625;stroke-linejoin:round"
         d="M 8.7185878,4.0337352 -2.2072895,0.01601326 8.7185884,-4.0017078 c -1.7454984,2.3720609 -1.7354408,5.6174519 -6e-7,8.035443 z"
         transform="matrix(-1.1,0,0,-1.1,-1.1,0)" />
    </marker>
    <inkscape:perspective
       id="perspective3870"
       inkscape:persp3d-origin="0.5 : 0.33333333 : 1"
       inkscape:vp_z="1 : 0.5 : 1"
       inkscape:vp_y="0 : 1000 : 0"
       inkscape:vp_x="0 : 0.5 : 1"
       sodipodi:type="inkscape:persp3d" />
    <inkscape:perspective
       id="perspective3870-7"
       inkscape:persp3d-origin="0.5 : 0.33333333 : 1"
       inkscape:vp_z="1 : 0.5 : 1"
       inkscape:vp_y="0 : 1000 : 0"
       inkscape:vp_x="0 : 0.5 : 1"
       sodipodi:type="inkscape:persp3d" />
    <inkscape:perspective
       id="perspective3294"
       inkscape:persp3d-origin="0.5 : 0.33333333 : 1"
       inkscape:vp_z="1 : 0.5 : 1"
       inkscape:vp_y="0 : 1000 : 0"
       inkscape:vp_x="0 : 0.5 : 1"
       sodipodi:type="inkscape:persp3d" />
    <inkscape:perspective
       id="perspective4113"
       inkscape:persp3d-origin="0.5 : 0.33333333 : 1"
       inkscape:vp_z="1 : 0.5 : 1"
       inkscape:vp_y="0 : 1000 : 0"
       inkscape:vp_x="0 : 0.5 : 1"
       sodipodi:type="inkscape:persp3d" />
    <inkscape:perspective
       id="perspective4113-7"
       inkscape:persp3d-origin="0.5 : 0.33333333 : 1"
       inkscape:vp_z="1 : 0.5 : 1"
       inkscape:vp_y="0 : 1000 : 0"
       inkscape:vp_x="0 : 0.5 : 1"
       sodipodi:type="inkscape:persp3d" />
    <inkscape:perspective
       id="perspective4113-0"
       inkscape:persp3d-origin="0.5 : 0.33333333 : 1"
       inkscape:vp_z="1 : 0.5 : 1"
       inkscape:vp_y="0 : 1000 : 0"
       inkscape:vp_x="0 : 0.5 : 1"
       sodipodi:type="inkscape:persp3d" />
    <inkscape:perspective
       id="perspective4113-4"
       inkscape:persp3d-origin="0.5 : 0.33333333 : 1"
       inkscape:vp_z="1 : 0.5 : 1"
       inkscape:vp_y="0 : 1000 : 0"
       inkscape:vp_x="0 : 0.5 : 1"
       sodipodi:type="inkscape:persp3d" />
    <inkscape:perspective
       id="perspective4113-8"
       inkscape:persp3d-origin="0.5 : 0.33333333 : 1"
       inkscape:vp_z="1 : 0.5 : 1"
       inkscape:vp_y="0 : 1000 : 0"
       inkscape:vp_x="0 : 0.5 : 1"
       sodipodi:type="inkscape:persp3d" />
    <inkscape:perspective
       id="perspective4113-45"
       inkscape:persp3d-origin="0.5 : 0.33333333 : 1"
       inkscape:vp_z="1 : 0.5 : 1"
       inkscape:vp_y="0 : 1000 : 0"
       inkscape:vp_x="0 : 0.5 : 1"
       sodipodi:type="inkscape:persp3d" />
    <inkscape:perspective
       id="perspective4113-1"
       inkscape:persp3d-origin="0.5 : 0.33333333 : 1"
       inkscape:vp_z="1 : 0.5 : 1"
       inkscape:vp_y="0 : 1000 : 0"
       inkscape:vp_x="0 : 0.5 : 1"
       sodipodi:type="inkscape:persp3d" />
    <inkscape:perspective
       id="perspective4113-11"
       inkscape:persp3d-origin="0.5 : 0.33333333 : 1"
       inkscape:vp_z="1 : 0.5 : 1"
       inkscape:vp_y="0 : 1000 : 0"
       inkscape:vp_x="0 : 0.5 : 1"
       sodipodi:type="inkscape:persp3d" />
    <inkscape:perspective
       id="perspective4113-76"
       inkscape:persp3d-origin="0.5 : 0.33333333 : 1"
       inkscape:vp_z="1 : 0.5 : 1"
       inkscape:vp_y="0 : 1000 : 0"
       inkscape:vp_x="0 : 0.5 : 1"
       sodipodi:type="inkscape:persp3d" />
    <inkscape:perspective
       id="perspective4113-2"
       inkscape:persp3d-origin="0.5 : 0.33333333 : 1"
       inkscape:vp_z="1 : 0.5 : 1"
       inkscape:vp_y="0 : 1000 : 0"
       inkscape:vp_x="0 : 0.5 : 1"
       sodipodi:type="inkscape:persp3d" />
    <inkscape:perspective
       id="perspective4113-22"
       inkscape:persp3d-origin="0.5 : 0.33333333 : 1"
       inkscape:vp_z="1 : 0.5 : 1"
       inkscape:vp_y="0 : 1000 : 0"
       inkscape:vp_x="0 : 0.5 : 1"
       sodipodi:type="inkscape:persp3d" />
    <inkscape:perspective
       id="perspective4113-85"
       inkscape:persp3d-origin="0.5 : 0.33333333 : 1"
       inkscape:vp_z="1 : 0.5 : 1"
       inkscape:vp_y="0 : 1000 : 0"
       inkscape:vp_x="0 : 0.5 : 1"
       sodipodi:type="inkscape:persp3d" />
    <inkscape:perspective
       id="perspective4113-18"
       inkscape:persp3d-origin="0.5 : 0.33333333 : 1"
       inkscape:vp_z="1 : 0.5 : 1"
       inkscape:vp_y="0 : 1000 : 0"
       inkscape:vp_x="0 : 0.5 : 1"
       sodipodi:type="inkscape:persp3d" />
    <inkscape:perspective
       id="perspective4243"
       inkscape:persp3d-origin="0.5 : 0.33333333 : 1"
       inkscape:vp_z="1 : 0.5 : 1"
       inkscape:vp_y="0 : 1000 : 0"
       inkscape:vp_x="0 : 0.5 : 1"
       sodipodi:type="inkscape:persp3d" />
    <inkscape:perspective
       id="perspective4243-9"
       inkscape:persp3d-origin="0.5 : 0.33333333 : 1"
       inkscape:vp_z="1 : 0.5 : 1"
       inkscape:vp_y="0 : 1000 : 0"
       inkscape:vp_x="0 : 0.5 : 1"
       sodipodi:type="inkscape:persp3d" />
    <inkscape:perspective
       id="perspective4243-4"
       inkscape:persp3d-origin="0.5 : 0.33333333 : 1"
       inkscape:vp_z="1 : 0.5 : 1"
       inkscape:vp_y="0 : 1000 : 0"
       inkscape:vp_x="0 : 0.5 : 1"
       sodipodi:type="inkscape:persp3d" />
    <inkscape:perspective
       id="perspective4307"
       inkscape:persp3d-origin="0.5 : 0.33333333 : 1"
       inkscape:vp_z="1 : 0.5 : 1"
       inkscape:vp_y="0 : 1000 : 0"
       inkscape:vp_x="0 : 0.5 : 1"
       sodipodi:type="inkscape:persp3d" />
    <inkscape:perspective
       id="perspective4307-3"
       inkscape:persp3d-origin="0.5 : 0.33333333 : 1"
       inkscape:vp_z="1 : 0.5 : 1"
       inkscape:vp_y="0 : 1000 : 0"
       inkscape:vp_x="0 : 0.5 : 1"
       sodipodi:type="inkscape:persp3d" />
    <inkscape:perspective
       id="perspective4307-4"
       inkscape:persp3d-origin="0.5 : 0.33333333 : 1"
       inkscape:vp_z="1 : 0.5 : 1"
       inkscape:vp_y="0 : 1000 : 0"
       inkscape:vp_x="0 : 0.5 : 1"
       sodipodi:type="inkscape:persp3d" />
    <inkscape:perspective
       id="perspective4307-1"
       inkscape:persp3d-origin="0.5 : 0.33333333 : 1"
       inkscape:vp_z="1 : 0.5 : 1"
       inkscape:vp_y="0 : 1000 : 0"
       inkscape:vp_x="0 : 0.5 : 1"
       sodipodi:type="inkscape:persp3d" />
    <inkscape:perspective
       id="perspective4307-7"
       inkscape:persp3d-origin="0.5 : 0.33333333 : 1"
       inkscape:vp_z="1 : 0.5 : 1"
       inkscape:vp_y="0 : 1000 : 0"
       inkscape:vp_x="0 : 0.5 : 1"
       sodipodi:type="inkscape:persp3d" />
    <inkscape:perspective
       id="perspective4367"
       inkscape:persp3d-origin="0.5 : 0.33333333 : 1"
       inkscape:vp_z="1 : 0.5 : 1"
       inkscape:vp_y="0 : 1000 : 0"
       inkscape:vp_x="0 : 0.5 : 1"
       sodipodi:type="inkscape:persp3d" />
    <inkscape:perspective
       id="perspective4391"
       inkscape:persp3d-origin="0.5 : 0.33333333 : 1"
       inkscape:vp_z="1 : 0.5 : 1"
       inkscape:vp_y="0 : 1000 : 0"
       inkscape:vp_x="0 : 0.5 : 1"
       sodipodi:type="inkscape:persp3d" />
    <inkscape:perspective
       id="perspective4413"
       inkscape:persp3d-origin="0.5 : 0.33333333 : 1"
       inkscape:vp_z="1 : 0.5 : 1"
       inkscape:vp_y="0 : 1000 : 0"
       inkscape:vp_x="0 : 0.5 : 1"
       sodipodi:type="inkscape:persp3d" />
    <inkscape:perspective
       id="perspective4413-3"
       inkscape:persp3d-origin="0.5 : 0.33333333 : 1"
       inkscape:vp_z="1 : 0.5 : 1"
       inkscape:vp_y="0 : 1000 : 0"
       inkscape:vp_x="0 : 0.5 : 1"
       sodipodi:type="inkscape:persp3d" />
    <inkscape:perspective
       id="perspective4413-9"
       inkscape:persp3d-origin="0.5 : 0.33333333 : 1"
       inkscape:vp_z="1 : 0.5 : 1"
       inkscape:vp_y="0 : 1000 : 0"
       inkscape:vp_x="0 : 0.5 : 1"
       sodipodi:type="inkscape:persp3d" />
    <inkscape:perspective
       id="perspective4413-6"
       inkscape:persp3d-origin="0.5 : 0.33333333 : 1"
       inkscape:vp_z="1 : 0.5 : 1"
       inkscape:vp_y="0 : 1000 : 0"
       inkscape:vp_x="0 : 0.5 : 1"
       sodipodi:type="inkscape:persp3d" />
    <inkscape:perspective
       id="perspective4413-0"
       inkscape:persp3d-origin="0.5 : 0.33333333 : 1"
       inkscape:vp_z="1 : 0.5 : 1"
       inkscape:vp_y="0 : 1000 : 0"
       inkscape:vp_x="0 : 0.5 : 1"
       sodipodi:type="inkscape:persp3d" />
    <inkscape:perspective
       id="perspective4413-8"
       inkscape:persp3d-origin="0.5 : 0.33333333 : 1"
       inkscape:vp_z="1 : 0.5 : 1"
       inkscape:vp_y="0 : 1000 : 0"
       inkscape:vp_x="0 : 0.5 : 1"
       sodipodi:type="inkscape:persp3d" />
    <inkscape:perspective
       id="perspective4480"
       inkscape:persp3d-origin="0.5 : 0.33333333 : 1"
       inkscape:vp_z="1 : 0.5 : 1"
       inkscape:vp_y="0 : 1000 : 0"
       inkscape:vp_x="0 : 0.5 : 1"
       sodipodi:type="inkscape:persp3d" />
    <inkscape:perspective
       id="perspective4502"
       inkscape:persp3d-origin="0.5 : 0.33333333 : 1"
       inkscape:vp_z="1 : 0.5 : 1"
       inkscape:vp_y="0 : 1000 : 0"
       inkscape:vp_x="0 : 0.5 : 1"
       sodipodi:type="inkscape:persp3d" />
    <inkscape:perspective
       id="perspective4527"
       inkscape:persp3d-origin="0.5 : 0.33333333 : 1"
       inkscape:vp_z="1 : 0.5 : 1"
       inkscape:vp_y="0 : 1000 : 0"
       inkscape:vp_x="0 : 0.5 : 1"
       sodipodi:type="inkscape:persp3d" />
    <inkscape:perspective
       id="perspective4548"
       inkscape:persp3d-origin="0.5 : 0.33333333 : 1"
       inkscape:vp_z="1 : 0.5 : 1"
       inkscape:vp_y="0 : 1000 : 0"
       inkscape:vp_x="0 : 0.5 : 1"
       sodipodi:type="inkscape:persp3d" />
    <inkscape:perspective
       id="perspective4582"
       inkscape:persp3d-origin="0.5 : 0.33333333 : 1"
       inkscape:vp_z="1 : 0.5 : 1"
       inkscape:vp_y="0 : 1000 : 0"
       inkscape:vp_x="0 : 0.5 : 1"
       sodipodi:type="inkscape:persp3d" />
    <inkscape:perspective
       id="perspective4612"
       inkscape:persp3d-origin="0.5 : 0.33333333 : 1"
       inkscape:vp_z="1 : 0.5 : 1"
       inkscape:vp_y="0 : 1000 : 0"
       inkscape:vp_x="0 : 0.5 : 1"
       sodipodi:type="inkscape:persp3d" />
    <inkscape:perspective
       id="perspective4634"
       inkscape:persp3d-origin="0.5 : 0.33333333 : 1"
       inkscape:vp_z="1 : 0.5 : 1"
       inkscape:vp_y="0 : 1000 : 0"
       inkscape:vp_x="0 : 0.5 : 1"
       sodipodi:type="inkscape:persp3d" />
    <inkscape:perspective
       id="perspective4662"
       inkscape:persp3d-origin="0.5 : 0.33333333 : 1"
       inkscape:vp_z="1 : 0.5 : 1"
       inkscape:vp_y="0 : 1000 : 0"
       inkscape:vp_x="0 : 0.5 : 1"
       sodipodi:type="inkscape:persp3d" />
    <inkscape:perspective
       id="perspective2949"
       inkscape:persp3d-origin="0.5 : 0.33333333 : 1"
       inkscape:vp_z="1 : 0.5 : 1"
       inkscape:vp_y="0 : 1000 : 0"
       inkscape:vp_x="0 : 0.5 : 1"
       sodipodi:type="inkscape:persp3d" />
  </defs>
  <sodipodi:namedview
     id="base"
     pagecolor="#ffffff"
     bordercolor="#666666"
     borderopacity="1.0"
     gridtolerance="50"
     guidetolerance="10"
     objecttolerance="10"
     inkscape:pageopacity="0.0"
     inkscape:pageshadow="2"
     inkscape:zoom="1.93567"
     inkscape:cx="265.172"
     inkscape:cy="91.278213"
     inkscape:document-units="px"
     inkscape:current-layer="layer3"
     inkscape:window-width="1280"
     inkscape:window-height="977"
     inkscape:window-x="-4"
     inkscape:window-y="-4"
     inkscape:object-paths="false"
     inkscape:grid-bbox="false"
     inkscape:guide-bbox="false"
     showgrid="false"
     inkscape:window-maximized="1"
     inkscape:snap-object-midpoints="true"
     showborder="true" />
  <metadata
     id="metadata3181">
    <rdf:RDF>
      <cc:Work
         rdf:about="">
        <dc:format>image/svg+xml</dc:format>
        <dc:type
           rdf:resource="http://purl.org/dc/dcmitype/StillImage" />
      </cc:Work>
    </rdf:RDF>
  </metadata>
  <g
     inkscape:groupmode="layer"
     id="layer3"
     inkscape:label="bckg"
     style="display:inline"
     transform="translate(-233.86108,-130.10803)"
     sodipodi:insensitive="true">
    <path
       style="color:#000000;fill:#ffd5d5;fill-opacity:1;fill-rule:evenodd;stroke:#a02c2c;stroke-width:1.24999964;stroke-linecap:butt;stroke-linejoin:miter;stroke-miterlimit:4;stroke-opacity:1;stroke-dashoffset:0;marker:none;visibility:visible;display:inline;overflow:visible;enable-background:accumulate"
       d="m 346.5491,136.73587 c -3.82194,9.91507 -9.82048,15.74913 -20.94848,23.47238 -14.25701,2.8588 -30.11028,4.08496 -37.82978,17.59401 -6.49769,7.73884 -13.18787,25.65634 -14.19957,39.16577 -0.58761,8.65473 -2.07305,15.7301 -6.08727,26.81788 -13.44489,25.90061 -18.56182,87.36734 -19.23687,95.36549 -1.25677,18.85821 -6.16285,26.55845 -7.82114,36.77362 16.36458,0 22.45951,-0.18265 38.82409,-0.18265 3.13918,-14.61276 7.66154,-23.92862 9.24051,-38.57049 1.34458,-5.29016 0.55572,-2.71027 1.87548,-15.82767 0.29157,13.26284 3.3829,12.01313 2.87856,31.87089 0.12298,7.44586 -0.50517,9.05696 -0.16688,22.70992 51.38989,0 100.34802,-0.0627 151.73791,-0.0627 -1.41664,-14.1364 -3.96236,-31.16351 -2.38945,-45.58145 2.2632,-30.19633 4.00742,-21.02629 1.98794,-51.22948 2.45687,12.12417 3.30898,23.84107 5.66988,27.79127 2.24853,14.81183 6.13151,23.60352 10.6399,39.42042 0.77244,10.14265 1.55828,19.12212 6.10686,29.66192 15.3335,0 27.54565,0.13685 42.87915,0.13685 1.00812,-13.5505 -1.91474,-22.24896 -1.68215,-38.50317 -2.77757,-27.04438 -8.80326,-52.9084 -16.44455,-78.85243 -2.62698,-12.20816 -4.56585,-27.3973 -3.80985,-39.3509 -1.22234,-19.10987 -4.86115,-40.96429 -21.5272,-52.39042 -10.11587,-10.20859 -8.9606,-3.06725 -20.1981,-12.09835 -10.17669,-7.24542 -22.90165,-10.48724 -32.32306,-18.69158"
       id="rect3031"
       sodipodi:nodetypes="ccccccccccccccccccccccccc" />
    <rect
       style="color:#000000;fill:#ffffff;fill-opacity:1;fill-rule:evenodd;stroke:none;stroke-width:1.25;marker:none;visibility:visible;display:inline;overflow:visible;enable-background:accumulate"
       id="rect3049"
       width="40.589592"
       height="1.9739581"
       x="239.38173"
       y="375.1001" />
    <rect
       style="color:#000000;fill:#ffffff;fill-opacity:1;fill-rule:evenodd;stroke:none;stroke-width:1.25;marker:none;visibility:visible;display:inline;overflow:visible;enable-background:accumulate"
       id="rect3049-1"
       width="44.794518"
       height="2.1571021"
       x="465.94241"
       y="374.80066" />
    <rect
       style="color:#000000;fill:#ffffff;fill-opacity:1;fill-rule:evenodd;stroke:none;stroke-width:1.25;marker:none;visibility:visible;display:inline;overflow:visible;enable-background:accumulate"
       id="rect3049-4"
       width="153.04002"
       height="2.1571021"
       x="292.43051"
       y="374.62146" />
    <path
       style="color:#000000;fill:#ffd5d5;fill-opacity:1;fill-rule:evenodd;stroke:#a02c2c;stroke-width:1.24999964;stroke-linecap:butt;stroke-linejoin:miter;stroke-miterlimit:4;stroke-opacity:1;stroke-dasharray:none;stroke-dashoffset:0;marker:none;visibility:visible;display:inline;overflow:visible;enable-background:accumulate"
       d="m 290.23045,322.00343 c -5.46375,-32.30002 6.3938,-69.93572 14.03664,-86.28514"
       id="path4517"
       sodipodi:nodetypes="cc" />
  </g>
  <g
     inkscape:label="Skelet"
     inkscape:groupmode="layer"
     id="layer1"
     style="display:inline"
     transform="translate(-233.86108,-130.10803)"
     sodipodi:insensitive="true">
    <path
       style="color:#000000;fill:#ffffff;fill-opacity:1;fill-rule:evenodd;stroke:#4d4d4d;stroke-width:1;stroke-linecap:butt;stroke-linejoin:miter;stroke-miterlimit:4;stroke-opacity:1;stroke-dashoffset:0;marker:none;visibility:visible;display:inline;overflow:visible;enable-background:accumulate"
       d="m 397.2403,158.38322 c -2.09027,-0.0599 -4.11414,0.0193 -5.96875,0.21875 l -0.34375,4.6875 c 4.49959,-0.24448 9.02827,-2.12228 12.1875,4 -1.68699,6.10577 -9.14725,7.48288 -16.90625,9.78125 -4.16118,1.24085 -8.46315,-0.15963 -11.25,-1.15625 -2.01352,-0.72007 -3.48763,-0.71835 -2.375,-1.75 l -2.09375,-1.56448 -6.4375,-0.18552 c -0.7706,0.72349 -2.40512,1.28144 -3.53125,1.46875 -1.55287,2.78055 -5.60759,3.47296 -7.5625,1.53125 -1.68166,-2.90447 7.4541,-8.57451 17.4375,-11.25 l 1.4375,-4.03125 c 0.51187,-1.26584 -29.37064,5.94295 -28.0625,17.3125 -6.76971,2.92301 -17.57564,12.0221 -13.18992,16.99974 -8.86649,7.5316 -13.21713,12.96043 -6.27614,16.5245 -14.56642,6.12595 -8.70668,13.23017 -6.59644,16.06951 -10.36507,7.16301 -9.98226,13.00196 -6.65625,16.25 -5.28273,3.54972 -8.30722,8.87356 -6.3125,13 0.56113,1.16079 2.90086,2.63592 2.78125,2.75 -8.0321,7.66035 -13.13807,15.99967 -7.8125,21 -7.48297,12.53742 -5.58676,19.21907 0.0625,18.75 -4.41716,5.61464 -6.53287,11.16103 -1.65625,16.53125 0.012,2.27287 0.27701,4.52688 0.96875,6.71875 0.43059,1.36436 2.77688,2.1668 3.28125,3.5 18.13846,-24.41115 11.63678,-36.97052 37.43318,-54.56034 0.24264,6.05731 0.27115,13.26901 3.84807,15.02909 2.81503,0.61204 4.38047,-7.4623 6.5625,-11.28125 18.09403,42.38319 35.09441,61.26906 51.8125,63.75 22.83621,-5.06744 32.6188,-44.20074 30.8125,-45.78125 0,0 2.72621,-9.88924 3,-17.03125 1.78447,-1.42751 7.86761,-17.16063 3.5,-18.84375 3.66234,-9.99916 1.96832,-11.13172 1,-13.3125 1.00433,-6.77234 -0.86338,-12.95858 -2.90625,-14.46875 0.71973,-0.76907 3.94938,-8.03888 -2.09375,-14.8125 1.81164,-6.97183 -0.74313,-12.45741 -5.03125,-16.28125 2.00329,-7.94597 -2.7736,-14.37109 -6.84375,-15.25 0.85185,-13.77092 -16.75305,-22.9485 -26.21875,-24.3125 z m 12.1875,10.78125 c 2.48965,0.0754 3.5495,1.86663 4.91346,3.97706 1.98367,3.0693 2.88319,5.78022 -0.66831,9.13824 -9.95374,6.86033 -29.30216,12.0996 -44.37015,11.7597 -1.00552,-3.1858 2.49568,-6.34544 6.21875,-9.53125 17.63448,-0.62861 31.49989,-5.66768 31.375,-13.21875 -0.0264,-1.59443 1.03746,-2.17021 2.53125,-2.125 z m -61.5625,14.3125 c 1.17847,1.39031 3.23706,0.82589 7.75,1.40625 1.59708,2.62613 -1.49322,6.68852 -3.875,10.21875 -5.82574,0.61376 -12.82331,-0.46327 -15.21875,-2.59375 -2.35618,-3.04126 7.45266,-7.54725 11.34375,-9.03125 z m 74.5625,2.40625 c 3.37733,1.98487 6.14258,5.90494 1.65625,10.625 -18.7128,11.24465 -46.82021,11.78085 -59.15625,11.875 0.22322,-2.17346 -0.30705,-4.32654 1.71875,-6.5 21.47324,-1.24609 49.54339,-8.34139 55.78125,-16 z m -88.72845,12.71632 c 2.45161,2.74551 6.93042,5.11391 16.3847,4.50243 l -1.5625,5.15625 c -7.84091,2.11648 -13.67491,2.08259 -20.82704,-2 -1.92744,-2.83262 3.05404,-6.32523 6.00484,-7.65868 z m 95.04095,2.75243 c 2.16648,1.65781 5.16823,3.45053 1.9375,9.15625 -24.83302,11.83873 -47.03023,16.20713 -68.96875,13 -1.68655,-3.17397 -0.65447,-5.45013 1.78125,-7.25 24.91413,-0.13163 57.32433,-5.97547 65.25,-14.90625 z m -99.97038,12.51238 c 5.19336,1.33976 7.98334,1.95893 18.68913,1.70637 l -1.59375,5.59375 c -10.71685,1.10882 -20.22139,4.10984 -25.05766,-0.0194 -1.34825,-2.79674 5.44524,-5.39472 7.96228,-7.28073 l 0,1e-5 z m 104.62663,2.51887 c 0.88638,1.73282 1.98264,5.03493 0.25,7.1875 -10.98393,8.00464 -45.91298,27.29625 -74.02927,13.35838 -2.22381,-2.06647 -1.26118,-3.60442 0.52927,-5.67088 28.01363,4.01812 46.76355,-0.87876 73.25,-14.875 z M 321.2403,229.47697 c 3.56202,1.83603 13.94473,1.19491 22.71875,0.1875 l -1.625,6.25 c -8.69638,3.22872 -24.55989,4.26739 -27,1.4375 -2.24984,-2.60923 3.60145,-6.06615 5.90625,-7.875 z m 113.46875,1.59375 c 2.54002,2.98832 3.24843,6.24016 1.125,8.96875 -27.32307,21.135 -64.14536,25.39723 -79.0625,10.625 l 0.53125,-4.1875 c 30.23521,5.52282 51.6924,1.60934 77.40625,-15.40625 z m -94.5,12.90625 -1,6.90625 c -9.55738,0.68879 -23.892,6.16752 -28.40625,1.8125 -2.30179,-2.22059 -0.89023,-4.81849 4.40625,-7.75 8.09367,1.98216 16.90633,-0.57275 25,-0.96875 z m 97.6875,2.25 c 1.21892,2.92749 -0.44354,5.85376 -2.59375,8.78125 -26.82103,21.1816 -50.27321,29.12518 -60.5625,25.84375 -2.33145,-1.60928 -4.73099,-2.98474 -6.59375,-6.46875 -0.0399,-3.68923 0.25625,-5.03468 3.625,-7.75 32.19236,4.98992 58.61458,-14.87117 66.125,-20.40625 z m -2.59375,14.21875 c 0.36466,3.46437 0.3677,5.79925 -0.6875,7.84375 -19.54534,27.75514 -47.39652,37.40062 -64.40625,24.96875 -0.50854,-2.27567 0.67922,-3.32288 2.09375,-4.15625 18.44528,4.66384 41.27738,-7.2492 63,-28.65625 z m -100.5878,-0.14162 4.37934,-1.80816 0.25831,4.12934 -11.87029,6.45772 7.23264,-8.7789 z m -9.19345,0.64162 -10.0625,10.84375 c -9.14577,5.65641 -9.76182,3.77827 -11.46875,1.4375 -2.38401,-3.26928 2.98712,-8.8361 7.3125,-11.65625 3.83285,2.11365 9.65531,-0.17061 14.21875,-0.625 z m 30.11669,1.18552 6.94779,1.80816 c 2.31158,2.23127 0.87278,3.42931 -2.32477,5.66059 l -5.39794,-4.64956 0.77492,-2.81919 z m -36.67919,17.15823 -11.5,14.21875 c -6.59037,0.62134 -7.47104,-0.99053 -7.25,-3.09375 -0.40377,-2.08799 0.34319,-4.83912 2.84375,-7.25 4.01446,0.86476 9.32172,-0.45631 15.90625,-3.875 z m 112.875,0.46875 c 0.64957,0.93007 -1.03486,6.88586 -1.40625,8.15625 -23.05784,39.90059 -35.21761,35.8814 -51.15625,25.46875 -1.8278,-4.50303 -3.42331,-8.77071 0,-8.5 6.31426,-0.22628 13.17516,15.66496 52.5625,-25.125 z m -2.28125,18.0625 -4.59375,13.78125 c -13.13326,21.77395 -25.77276,28.58169 -29.4375,18.59375 l 3.125,-3.125 c 9.58189,1.34135 24.22969,-16.91376 30.90625,-29.25 z"
       id="rect4099-92-7"
       sodipodi:nodetypes="cccccsccccccccccccsscccscccccccccccccccscccsccccccccccccccccccccccccccccccccccsccccccccsccccccccccccccccccccsccccccccccccccccccccccc" />
    <path
       style="color:#000000;fill:#ffffff;fill-opacity:1;fill-rule:evenodd;stroke:#4d4d4d;stroke-width:1;stroke-linecap:butt;stroke-linejoin:miter;stroke-miterlimit:4;stroke-opacity:1;stroke-dashoffset:0;marker:none;visibility:visible;display:inline;overflow:visible;enable-background:accumulate"
       d="m 375.26118,164.99087 c 4.60047,0.69516 10.61234,0.56821 37.72798,-4.64197 16.0273,-6.57809 28.14798,-2.6741 35.805,-0.15129 0.45987,2.54352 -0.76498,3.98638 -3.65304,5.11424 -10.98857,-0.47275 -12.68514,-3.40253 -25.21064,0.76162 -23.80286,7.91336 -46.80684,13.73405 -49.1286,7.82301 -0.69532,-3.22684 -0.11708,-5.49611 4.4593,-8.90561 z"
       id="rect4277"
       sodipodi:nodetypes="ccccscc" />
    <path
       style="color:#000000;fill:#ffffff;fill-opacity:1;fill-rule:evenodd;stroke:#4d4d4d;stroke-width:1;stroke-linecap:butt;stroke-linejoin:miter;stroke-miterlimit:4;stroke-opacity:1;stroke-dashoffset:0;marker:none;visibility:visible;display:inline;overflow:visible;enable-background:accumulate"
       d="m 316.91964,168.44827 c 8.93148,-5.63147 13.46591,-4.11725 20.46176,-2.00623 3.66389,3.37733 17.24101,-1.1685 23.52596,-2.15962 5.45147,2.5259 4.0552,6.13949 2.23234,8.82996 -10.24814,0.68859 -20.04306,4.62132 -25.78947,0.80818 -6.44489,-2.83863 -11.79388,-2.3337 -18.23877,-1.30264 -2.49264,-1.21767 -2.78568,-2.95197 -2.19182,-4.16965 z"
       id="rect4280"
       sodipodi:nodetypes="ccccccc" />
    <path
       style="fill:#ffffff;stroke:#4d4d4d;stroke-width:1px;stroke-linecap:butt;stroke-linejoin:miter;stroke-opacity:1"
       d="m 428.82245,201.36989 c 1.67548,-2.92242 1.50817,-3.27759 1.4935,-3.27759"
       id="path4286"
       sodipodi:nodetypes="cc" />
    <path
       id="path4288"
       d="m 433.43971,216.48094 c 0.78315,-0.62994 2.01012,-2.27665 2.01012,-2.27665"
       style="fill:#ffffff;stroke:#4d4d4d;stroke-width:1px;stroke-linecap:butt;stroke-linejoin:miter;stroke-opacity:1"
       sodipodi:nodetypes="cc" />
    <path
       id="path4288-2"
       d="m 434.45523,231.25869 c 1.71952,-0.9342 2.23613,-1.71778 3.10793,-2.53496"
       style="fill:#ffffff;stroke:#4d4d4d;stroke-width:1px;stroke-linecap:butt;stroke-linejoin:miter;stroke-opacity:1;display:inline"
       sodipodi:nodetypes="cc" />
    <path
       id="path4288-3"
       d="m 437.42577,246.53118 c 1.36434,-0.53306 3.04335,-3.11615 3.04335,-3.11615"
       style="fill:#ffffff;stroke:#4d4d4d;stroke-width:1px;stroke-linecap:butt;stroke-linejoin:miter;stroke-opacity:1;display:inline"
       sodipodi:nodetypes="cc" />
    <path
       id="path4288-1"
       d="m 435.29473,260.47984 c 1.33205,-1.08197 4.07658,-4.08481 4.07658,-4.08481"
       style="fill:#ffffff;stroke:#4d4d4d;stroke-width:1px;stroke-linecap:butt;stroke-linejoin:miter;stroke-opacity:1;display:inline"
       sodipodi:nodetypes="cc" />
    <path
       id="path4288-38"
       d="m 431.80757,279.7884 c 1.85779,-1.66657 4.53773,-4.46494 4.46404,-4.69829"
       style="fill:#ffffff;stroke:#4d4d4d;stroke-width:1px;stroke-linecap:butt;stroke-linejoin:miter;stroke-opacity:1;display:inline"
       sodipodi:nodetypes="cc" />
    <path
       id="path4288-4"
       d="m 429.48279,298.09602 c 1.58379,-2.49338 3.47129,-5.29925 3.43081,-5.44093"
       style="fill:#ffffff;stroke:#4d4d4d;stroke-width:1px;stroke-linecap:butt;stroke-linejoin:miter;stroke-opacity:1;display:inline"
       sodipodi:nodetypes="cc" />
    <path
       id="path4288-27"
       d="m 422.47617,185.73183 c 1.26862,-2.92242 1.02734,-3.2776 1.07375,-3.2776"
       style="fill:#ffffff;stroke:#4d4d4d;stroke-width:1px;stroke-linecap:butt;stroke-linejoin:miter;stroke-opacity:1;display:inline"
       sodipodi:nodetypes="cc" />
    <path
       id="path4288-7"
       d="m 330.49426,194.50208 c 0.73149,2.03769 2.12123,3.08185 3.26229,4.08643"
       style="fill:#ffffff;stroke:#4d4d4d;stroke-width:1px;stroke-linecap:butt;stroke-linejoin:miter;stroke-opacity:1;display:inline"
       sodipodi:nodetypes="cc" />
    <path
       id="path4288-7-9"
       d="m 324.19276,210.94074 c 0.35101,0.94178 4.63218,2.80785 4.63218,2.80785"
       style="fill:#ffffff;stroke:#4d4d4d;stroke-width:1px;stroke-linecap:butt;stroke-linejoin:miter;stroke-opacity:1;display:inline"
       sodipodi:nodetypes="cc" />
    <path
       id="path4288-7-1"
       d="m 317.70864,226.83143 c 0.53366,0.6678 3.07963,2.44256 3.07963,2.44256"
       style="fill:#ffffff;stroke:#4d4d4d;stroke-width:1px;stroke-linecap:butt;stroke-linejoin:miter;stroke-opacity:1;display:inline"
       sodipodi:nodetypes="cc" />
    <path
       id="path4288-7-8"
       d="m 311.40715,243.08743 c 0.35101,0.94178 3.71891,1.71195 3.71891,1.71195"
       style="fill:#ffffff;stroke:#4d4d4d;stroke-width:1px;stroke-linecap:butt;stroke-linejoin:miter;stroke-opacity:1;display:inline"
       sodipodi:nodetypes="cc" />
    <path
       id="path4288-7-5"
       d="m 307.51796,259.10728 c 0.86763,0.94178 3.69676,2.40014 3.69676,2.40014"
       style="fill:#ffffff;stroke:#4d4d4d;stroke-width:1px;stroke-linecap:butt;stroke-linejoin:miter;stroke-opacity:1;display:inline"
       sodipodi:nodetypes="cc" />
    <path
       id="path4288-7-2"
       d="m 299.71744,280.16573 c 0.35101,1.18031 3.33335,3.52649 3.33335,2.93701"
       style="fill:#ffffff;stroke:#4d4d4d;stroke-width:1px;stroke-linecap:butt;stroke-linejoin:miter;stroke-opacity:1;display:inline"
       sodipodi:nodetypes="cc" />
    <path
       id="path4288-7-6"
       d="m 302.63987,302.99718 c -0.7449,2.58564 -0.84738,4.81703 -0.84738,4.81703"
       style="fill:#ffffff;stroke:#4d4d4d;stroke-width:1px;stroke-linecap:butt;stroke-linejoin:miter;stroke-opacity:1;display:inline"
       sodipodi:nodetypes="cc" />
    <path
       id="path4288-7-0"
       d="m 344.37578,176.23691 c -1.93979,1.80083 2.50676,7.96571 4.08422,7.37416"
       style="fill:#ffffff;stroke:#4d4d4d;stroke-width:1px;stroke-linecap:butt;stroke-linejoin:miter;stroke-opacity:1;display:inline"
       sodipodi:nodetypes="cc" />
    <path
       id="path4288-27-2"
       d="m 416.29324,330.24127 c 1.87848,4.31881 11.73387,-12.79393 12.39816,-20.62951"
       style="fill:#ffffff;stroke:#4d4d4d;stroke-width:1px;stroke-linecap:butt;stroke-linejoin:miter;stroke-opacity:1;display:inline"
       sodipodi:nodetypes="cc" />
  </g>
  <g
     inkscape:groupmode="layer"
     id="layer5"
     inkscape:label="Leads"
     transform="translate(-233.86108,-130.10803)"
     style="display:inline"
     sodipodi:insensitive="true">
    <path
       style="fill:none;stroke:#0000ff;stroke-width:1px;stroke-linecap:butt;stroke-linejoin:miter;stroke-opacity:1"
       d="m 312.46469,342.6994 c 6.36986,-34.33852 9.30166,-75.19069 25.62905,-109.52921"
       id="path2969"
       sodipodi:nodetypes="cc" />
    <path
       sodipodi:nodetypes="cc"
       id="path3767"
       d="m 345.47388,346.71776 c 1.47314,-35.928 7.24621,-77.61284 18.09405,-111.58606"
       style="fill:none;stroke:#0000ff;stroke-width:1px;stroke-linecap:butt;stroke-linejoin:miter;stroke-opacity:1" />
    <path
       style="fill:none;stroke:#0000ff;stroke-width:1px;stroke-linecap:butt;stroke-linejoin:miter;stroke-opacity:1"
       d="m 378.36265,348.97844 c -0.43247,-34.33852 -1.04257,-67.01059 3.23358,-105.00214"
       id="path3769"
       sodipodi:nodetypes="cc" />
    <path
       sodipodi:nodetypes="cc"
       id="path3771"
       d="m 417.59121,342.69942 c -9.6576,-27.03245 -19.11426,-52.00837 -15.34996,-92.19175"
       style="fill:none;stroke:#0000ff;stroke-width:1px;stroke-linecap:butt;stroke-linejoin:miter;stroke-opacity:1" />
    <path
       style="fill:none;stroke:#0000ff;stroke-width:1px;stroke-linecap:butt;stroke-linejoin:miter;stroke-opacity:1"
       d="M 451.42012,318.77098 C 437.74418,299.0446 425.71132,273.3023 423.63076,242.98211"
       id="path3773"
       sodipodi:nodetypes="cc" />
    <path
       sodipodi:nodetypes="cc"
       id="path3775"
       d="m 469.31092,276.84448 c -7.83108,-14.61214 -19.34469,-30.74557 -30.55783,-43.16589"
       style="fill:none;stroke:#0000ff;stroke-width:1px;stroke-linecap:butt;stroke-linejoin:miter;stroke-opacity:1" />
    <path
       style="color:#000000;fill:none;stroke:#00ff00;stroke-width:1px;stroke-linecap:butt;stroke-linejoin:miter;stroke-miterlimit:4;stroke-opacity:1;stroke-dasharray:none;stroke-dashoffset:0;marker:none;visibility:visible;display:inline;overflow:visible;enable-background:accumulate"
       d="m 355.88513,229.82977 c 14.70975,9.54046 37.09917,19.68717 55.79463,25.05592"
       id="path4652"
       sodipodi:nodetypes="cc" />
    <path
       sodipodi:type="arc"
       style="fill:#ff0000;fill-opacity:1;fill-rule:evenodd;stroke:#000000;stroke-width:0.92810196;stroke-linecap:butt;stroke-linejoin:miter;stroke-miterlimit:4;stroke-opacity:1;stroke-dasharray:none"
       id="path29936"
       sodipodi:cx="378.80719"
       sodipodi:cy="224.54218"
       sodipodi:rx="6.5659914"
       sodipodi:ry="6.5659914"
       d="m 385.37318,224.54218 a 6.5659914,6.5659914 0 1 1 -13.13198,0 6.5659914,6.5659914 0 1 1 13.13198,0 z"
       transform="matrix(0.63522517,0,0,0.7139059,97.465885,72.868206)" />
    <path
       sodipodi:type="arc"
       style="fill:#ff0000;fill-opacity:1;fill-rule:evenodd;stroke:#000000;stroke-width:0.87546551;stroke-linecap:butt;stroke-linejoin:miter;stroke-miterlimit:4;stroke-opacity:1;stroke-dasharray:none"
       id="path30907"
       sodipodi:cx="378.80719"
       sodipodi:cy="224.54218"
       sodipodi:rx="6.5659914"
       sodipodi:ry="6.5659914"
       d="m 385.37318,224.54218 a 6.5659914,6.5659914 0 1 1 -13.13198,0 6.5659914,6.5659914 0 1 1 13.13198,0 z"
       transform="matrix(0.7139059,0,0,0.7139059,93.135245,74.829715)" />
    <path
       sodipodi:type="arc"
       style="fill:#ff0000;fill-opacity:1;fill-rule:evenodd;stroke:#000000;stroke-width:0.87546551;stroke-linecap:butt;stroke-linejoin:miter;stroke-miterlimit:4;stroke-opacity:1;stroke-dasharray:none"
       id="path30909"
       sodipodi:cx="378.80719"
       sodipodi:cy="224.54218"
       sodipodi:rx="6.5659914"
       sodipodi:ry="6.5659914"
       d="m 385.37318,224.54218 a 6.5659914,6.5659914 0 1 1 -13.13198,0 6.5659914,6.5659914 0 1 1 13.13198,0 z"
       transform="matrix(0.7139059,0,0,0.7139059,111.16354,83.674321)" />
    <path
       sodipodi:type="arc"
       style="fill:#ff0000;fill-opacity:1;fill-rule:evenodd;stroke:#000000;stroke-width:1.00953937;stroke-linecap:butt;stroke-linejoin:miter;stroke-miterlimit:4;stroke-opacity:1;stroke-dasharray:none"
       id="path30913"
       sodipodi:cx="378.80719"
       sodipodi:cy="224.54218"
       sodipodi:rx="6.5659914"
       sodipodi:ry="6.5659914"
       d="m 385.37318,224.54218 a 6.5659914,6.5659914 0 1 1 -13.13198,0 6.5659914,6.5659914 0 1 1 13.13198,0 z"
       transform="matrix(0.53687426,0,0,0.7139059,220.25893,82.680123)" />
    <g
       id="g2963"
       transform="translate(-28.858966,-13.881528)">
      <g
         transform="translate(-37.196424,0)"
         id="g31062">
        <rect
           style="fill:#ffffff;fill-opacity:1;stroke:#000000;stroke-width:0.625;stroke-miterlimit:4;stroke-opacity:1;stroke-dasharray:none"
           id="rect30917"
           width="24.374998"
           height="24.375"
           x="366.33258"
           y="344.39343" />
        <text
           sodipodi:linespacing="125%"
           xml:space="preserve"
           style="font-size:16px;font-style:normal;font-variant:normal;font-weight:normal;font-stretch:normal;text-align:start;line-height:125%;writing-mode:lr-tb;text-anchor:start;font-family:Arial;-inkscape-font-specification:Arial"
           x="369.64508"
           y="362.59671"
           id="text30919"><tspan
             style="font-size:16px;font-style:normal;font-variant:normal;font-weight:normal;font-stretch:normal;text-align:start;line-height:125%;writing-mode:lr-tb;text-anchor:start;font-family:Arial;-inkscape-font-specification:Arial"
             sodipodi:role="line"
             id="tspan30921"
             x="369.64508"
             y="362.59671">V1</tspan></text>
      </g>
    </g>
    <g
       id="g31057"
       transform="translate(-68.612514,-10.593798)">
      <rect
         y="345.12405"
         x="401.8989"
         height="24.375"
         width="24.374998"
         id="rect30930"
         style="fill:#ffffff;fill-opacity:1;stroke:#000000;stroke-width:0.625;stroke-miterlimit:4;stroke-opacity:1;stroke-dasharray:none" />
      <text
         id="text30932"
         y="362.59671"
         x="404.56686"
         style="font-size:16px;font-style:normal;font-variant:normal;font-weight:normal;font-stretch:normal;text-align:start;line-height:125%;writing-mode:lr-tb;text-anchor:start;font-family:Arial;-inkscape-font-specification:Arial"
         xml:space="preserve"
         sodipodi:linespacing="125%"><tspan
           y="362.59671"
           x="404.56686"
           id="tspan30934"
           sodipodi:role="line">V2</tspan></text>
    </g>
    <g
       id="g31052"
       transform="translate(-64.594177,-14.612135)">
      <rect
         y="345.12405"
         x="469.99789"
         height="24.375"
         width="24.374998"
         id="rect30946"
         style="fill:#ffffff;fill-opacity:1;stroke:#000000;stroke-width:0.625;stroke-miterlimit:4;stroke-opacity:1;stroke-dasharray:none" />
      <text
         id="text30948"
         y="362.59671"
         x="472.61118"
         style="font-size:16px;font-style:normal;font-variant:normal;font-weight:normal;font-stretch:normal;text-align:start;line-height:125%;writing-mode:lr-tb;text-anchor:start;font-family:Arial;-inkscape-font-specification:Arial"
         xml:space="preserve"
         sodipodi:linespacing="125%"><tspan
           y="362.59671"
           x="472.61118"
           id="tspan30950"
           sodipodi:role="line">V4</tspan></text>
    </g>
    <g
       id="g31031"
       transform="translate(-48.442944,-5.2915222)">
      <rect
         y="311.875"
         x="487.67557"
         height="24.375"
         width="24.374998"
         id="rect30954"
         style="fill:#ffffff;fill-opacity:1;stroke:#000000;stroke-width:0.625;stroke-miterlimit:4;stroke-opacity:1;stroke-dasharray:none" />
      <text
         id="text30956"
         y="329.23828"
         x="490.53885"
         style="font-size:16px;font-style:normal;font-variant:normal;font-weight:normal;font-stretch:normal;text-align:start;line-height:125%;writing-mode:lr-tb;text-anchor:start;font-family:Arial;-inkscape-font-specification:Arial"
         xml:space="preserve"
         sodipodi:linespacing="125%"><tspan
           y="329.23828"
           x="490.53885"
           id="tspan30958"
           sodipodi:role="line">V5</tspan></text>
    </g>
    <g
       id="g31036"
       transform="translate(-44.070057,-15.775176)">
      <rect
         y="280.43216"
         x="501.19348"
         height="24.375"
         width="24.374998"
         id="rect30962"
         style="fill:#ffffff;fill-opacity:1;stroke:#000000;stroke-width:0.625;stroke-miterlimit:4;stroke-opacity:1;stroke-dasharray:none" />
      <text
         id="text30964"
         y="297.90482"
         x="503.83801"
         style="font-size:16px;font-style:normal;font-variant:normal;font-weight:normal;font-stretch:normal;text-align:start;line-height:125%;writing-mode:lr-tb;text-anchor:start;font-family:Arial;-inkscape-font-specification:Arial"
         xml:space="preserve"
         sodipodi:linespacing="125%"><tspan
           y="297.90482"
           x="503.83801"
           id="tspan30966"
           sodipodi:role="line">V6</tspan></text>
    </g>
    <g
       id="g31047"
       transform="translate(-69.708424,-22.54094)">
      <rect
         y="359.33188"
         x="435.88358"
         height="24.375"
         width="24.374998"
         id="rect30938"
         style="fill:#ffffff;fill-opacity:1;stroke:#000000;stroke-width:0.625;stroke-miterlimit:4;stroke-opacity:1;stroke-dasharray:none" />
      <text
         id="text30940"
         y="376.80453"
         x="438.88358"
         style="font-size:16px;font-style:normal;font-variant:normal;font-weight:normal;font-stretch:normal;text-align:start;line-height:125%;writing-mode:lr-tb;text-anchor:start;font-family:Arial;-inkscape-font-specification:Arial"
         xml:space="preserve"
         sodipodi:linespacing="125%"><tspan
           y="376.80453"
           x="438.88358"
           id="tspan30942"
           sodipodi:role="line">V3</tspan></text>
    </g>
    <path
       style="fill:none;stroke:#00ff00;stroke-width:1px;stroke-linecap:butt;stroke-linejoin:miter;stroke-opacity:1"
       d="m 411.67976,160.8614 c -2.23048,3.25775 -5.3476,4.96565 -0.95248,8.2234 -10.92929,34.28308 -7.91279,77.34866 -7.83001,110.08189"
       id="path4570"
       sodipodi:nodetypes="ccc" />
    <path
       style="color:#000000;fill:none;stroke:#501616;stroke-width:1px;stroke-linecap:butt;stroke-linejoin:miter;stroke-miterlimit:4;stroke-opacity:1;stroke-dasharray:none;stroke-dashoffset:0;marker:none;visibility:visible;display:inline;overflow:visible;enable-background:accumulate"
       d="m 428.53437,234.02728 c -1.05677,-2.88406 0.32479,-4.39921 0.63224,-6.39073 0.6677,-4.32502 0.0874,-9.41719 2.81338,-11.0024 2.33093,-1.35547 5.36586,-0.49557 7.63464,5.20944 0.44468,1.11817 1.00749,2.97392 2.02892,3.85324"
       id="path4572"
       sodipodi:nodetypes="csssc" />
    <path
       style="color:#000000;fill:none;stroke:#a02c2c;stroke-width:1.24999964;stroke-linecap:butt;stroke-linejoin:miter;stroke-miterlimit:4;stroke-opacity:1;stroke-dasharray:none;stroke-dashoffset:0;marker:none;visibility:visible;display:inline;overflow:visible;enable-background:accumulate"
       d="m 445.16154,281.03943 c -8.74022,-13.76158 -13.26669,-31.45167 -16.66089,-47.1413"
       id="path4517-9"
       sodipodi:nodetypes="cc" />
    <path
       style="fill:none;stroke:#00ff00;stroke-width:1px;stroke-linecap:butt;stroke-linejoin:miter;stroke-opacity:1"
       d="m 432.27605,216.49141 c 6.32894,9.84577 13.93833,39.41537 8.33426,68.87469"
       id="path4650"
       sodipodi:nodetypes="cc" />
    <path
       sodipodi:type="arc"
       style="fill:#ff0000;fill-opacity:1;fill-rule:evenodd;stroke:#000000;stroke-width:0.87546551;stroke-linecap:butt;stroke-linejoin:miter;stroke-miterlimit:4;stroke-opacity:1;stroke-dasharray:none"
       id="path30911"
       sodipodi:cx="378.80719"
       sodipodi:cy="224.54218"
       sodipodi:rx="6.5659914"
       sodipodi:ry="6.5659914"
       d="m 385.37318,224.54218 a 6.5659914,6.5659914 0 1 1 -13.13198,0 6.5659914,6.5659914 0 1 1 13.13198,0 z"
       transform="matrix(0.7139059,0,0,0.7139059,131.80856,90.205691)" />
    <path
       sodipodi:type="arc"
       style="fill:#ff0000;fill-opacity:1;fill-rule:evenodd;stroke:#000000;stroke-width:1.10470641;stroke-linecap:butt;stroke-linejoin:miter;stroke-miterlimit:4;stroke-opacity:1;stroke-dasharray:none"
       id="path30915"
       sodipodi:cx="378.80719"
       sodipodi:cy="224.54218"
       sodipodi:rx="6.5659914"
       sodipodi:ry="6.5659914"
       d="m 385.37318,224.54218 a 6.5659914,6.5659914 0 1 1 -13.13198,0 6.5659914,6.5659914 0 1 1 13.13198,0 z"
       transform="matrix(0.44835844,0,0,0.7139059,268.91169,73.376606)" />
  </g>
</svg>
