<?xml version="1.0" encoding="UTF-8" standalone="no"?>
<svg
   xmlns:dc="http://purl.org/dc/elements/1.1/"
   xmlns:cc="http://creativecommons.org/ns#"
   xmlns:rdf="http://www.w3.org/1999/02/22-rdf-syntax-ns#"
   xmlns:svg="http://www.w3.org/2000/svg"
   xmlns="http://www.w3.org/2000/svg"
   xmlns:sodipodi="http://sodipodi.sourceforge.net/DTD/sodipodi-0.dtd"
   xmlns:inkscape="http://www.inkscape.org/namespaces/inkscape"
   id="svg"
   version="1.1"
   width="205"
   height="236"
   viewBox="0 0 205 236"
   sodipodi:docname="Neurowissenschaften-zunge.svg"
   inkscape:version="0.92.5 (2060ec1f9f, 2020-04-08)"
   inkscape:export-filename="/home/robert/Dokumente/Dokumente/Universität/Informatik(Github)/Assets/Neurowissenschaften-zunge.png"
   inkscape:export-xdpi="300"
   inkscape:export-ydpi="300">
  <title
     id="title832">Zunge</title>
  <metadata
     id="metadata1443">
    <rdf:RDF>
      <cc:Work
         rdf:about="">
        <dc:format>image/svg+xml</dc:format>
        <dc:type
           rdf:resource="http://purl.org/dc/dcmitype/StillImage" />
        <dc:title>Zunge</dc:title>
        <cc:license
           rdf:resource="http://creativecommons.org/licenses/by-nc-sa/4.0/" />
        <dc:creator>
          <cc:Agent>
            <dc:title>Robert Jeutter</dc:title>
          </cc:Agent>
        </dc:creator>
      </cc:Work>
      <cc:License
         rdf:about="http://creativecommons.org/licenses/by-nc-sa/4.0/">
        <cc:permits
           rdf:resource="http://creativecommons.org/ns#Reproduction" />
        <cc:permits
           rdf:resource="http://creativecommons.org/ns#Distribution" />
        <cc:requires
           rdf:resource="http://creativecommons.org/ns#Notice" />
        <cc:requires
           rdf:resource="http://creativecommons.org/ns#Attribution" />
        <cc:prohibits
           rdf:resource="http://creativecommons.org/ns#CommercialUse" />
        <cc:permits
           rdf:resource="http://creativecommons.org/ns#DerivativeWorks" />
        <cc:requires
           rdf:resource="http://creativecommons.org/ns#ShareAlike" />
      </cc:License>
    </rdf:RDF>
  </metadata>
  <defs
     id="defs1441" />
  <sodipodi:namedview
     pagecolor="#ffffff"
     bordercolor="#666666"
     borderopacity="1"
     objecttolerance="10"
     gridtolerance="10"
     guidetolerance="10"
     inkscape:pageopacity="0"
     inkscape:pageshadow="2"
     inkscape:window-width="2488"
     inkscape:window-height="1376"
     id="namedview1439"
     showgrid="false"
     inkscape:pagecheckerboard="true"
     inkscape:zoom="2.1851852"
     inkscape:cx="-28.865067"
     inkscape:cy="205.67133"
     inkscape:window-x="72"
     inkscape:window-y="228"
     inkscape:window-maximized="1"
     inkscape:current-layer="svg" />
  <g
     id="svgg"
     style="display:inline"
     transform="translate(-96.559321,-135.59322)">
    <path
       id="path0"
       d="m 152.2,139.659 c -7.009,0.895 -12.332,3.034 -12.525,5.033 -0.697,7.224 7.733,23.243 17.107,32.508 32.143,31.769 87.058,18.844 101.019,-23.776 3.226,-9.847 2.898,-10.645 -5.26,-12.794 -11.077,-2.919 -22.037,-1.562 -37.541,4.647 -14.383,5.761 -16.319,5.747 -31.107,-0.232 -13.155,-5.319 -21.337,-6.709 -31.693,-5.386 m -34.6,158.125 c 0,3.095 12.315,27.017 15.899,30.885 0.906,0.978 2.101,0.789 2.101,-0.332 0,-0.2 0.99,-2.528 2.2,-5.172 2.846,-6.22 2.867,-6.044 -1.076,-8.965 -3.656,-2.708 -13.197,-11.781 -15.924,-15.142 -1.957,-2.413 -3.2,-2.908 -3.2,-1.274 m 161.387,0.916 c -4.324,5.191 -11.788,12.228 -17.459,16.459 -1.662,1.24 -2.231,1.905 -2.121,2.48 0.144,0.745 4.894,11.579 5.229,11.925 1.411,1.459 17.364,-28.045 17.364,-32.114 0,-1.238 -1.437,-0.642 -3.013,1.25"
       inkscape:connector-curvature="0"
       style="display:inline;fill:#5eb77e;fill-rule:evenodd;stroke:none" />
    <path
       id="path1"
       d="m 135.7,146.222 c -1.79,1.426 -1.751,1.599 2.213,9.646 5.763,11.701 10.607,27.496 9.653,31.475 -0.474,1.975 -0.413,3.79 0.421,12.457 2.498,25.978 -4.905,56.464 -19.367,79.748 -2.654,4.274 -8.792,12.582 -10.347,14.008 l -1.043,0.955 1.285,1.837 c 2.138,3.057 13.808,14.519 18.285,17.96 2.31,1.775 4.788,3.859 5.506,4.632 4.753,5.11 23.094,12.873 36.894,15.617 27.358,5.438 63.216,-1.998 78.822,-16.346 1.442,-1.326 4.142,-3.601 6,-5.056 4.501,-3.526 10.35,-9.102 14.002,-13.352 4.354,-5.066 4.31,-4.961 2.798,-6.58 -20.745,-22.207 -33.593,-66.44 -28.815,-99.2 0.398,-2.731 0.391,-3.911 -0.034,-6.166 -1.136,-6.018 3.171,-19.817 10.578,-33.89 3.059,-5.813 3.147,-6.347 1.273,-7.776 -2.901,-2.213 -3.575,-1.589 -5.393,4.986 -10.031,36.287 -51.894,54.459 -85.886,37.282 -16.077,-8.124 -26.812,-20.993 -31.75,-38.059 -1.659,-5.736 -2.388,-6.334 -5.095,-4.178"
       inkscape:connector-curvature="0"
       style="display:inline;fill:#d74c69;fill-rule:evenodd;stroke:none" />
    <g
       id="layer1"
       inkscape:label="path2"
       style="display:inline"
       inkscape:groupmode="layer">
      <path
         style="display:inline;fill:#ff0512;fill-opacity:1;stroke:none;stroke-width:1px;stroke-linecap:butt;stroke-linejoin:miter;stroke-opacity:1"
         d="m 143.18912,338.64393 c 0,0 14.41376,-17.75511 17.63573,-26.04909 3.9222,-10.09651 11.85218,-17.20886 20.70984,-22.00421 6.0704,-3.28639 13.48428,-3.52592 20.38624,-3.6404 6.97405,-0.11569 13.96615,-0.30724 20.70985,2.99321 11.68179,5.71722 16.72545,12.48104 20.54804,21.51882 3.46218,8.18566 11.81108,32.84452 11.81108,32.84452 l -54.36333,22.65139 z"
         id="path1992"
         inkscape:connector-curvature="0"
         sodipodi:nodetypes="csaassccc" />
    </g>
    <path
       id="path3"
       d="m 133.11732,147.35813 c -3.101,1.656 -6.63732,5.53187 -9.88432,9.84187 -20.407,27.086 -26.224,74.746 -14.623,119.8 2.705,10.507 3.187,11.672 6.117,14.795 l 2.528,2.693 1.03,-0.944 c 1.545,-1.415 7.69,-9.737 10.335,-13.996 14.462,-23.284 21.865,-53.77 19.367,-79.748 -0.834,-8.667 -0.895,-10.482 -0.421,-12.457 0.954,-3.979 -3.89,-19.774 -9.653,-31.475 -1.932,-3.922 -3.35968,-7.49759 -3.513,-7.88 -0.093,-0.23184 -0.52352,-0.61928 -0.52352,-0.61928 0,0 -0.18218,-0.15666 -0.34953,-0.10656 m 132.20203,0.0857 c 0,0 0.0502,-0.12532 -0.52898,0.73911 -0.25939,0.38713 -1.192,3.111 -2.649,5.88 -7.407,14.073 -11.714,27.872 -10.578,33.89 0.425,2.255 0.432,3.435 0.034,6.166 -3.542,24.283 2.373,55.595 14.865,78.695 4.077,7.539 13.312,20.806 14.91,21.42 0.991,0.38 5.354,-4.626 6.217,-7.136 14.321,-41.625 10.524,-96.813 -8.628,-125.402 -6.268,-9.357 -11.86581,-16.00213 -13.39334,-14.4307"
       inkscape:connector-curvature="0"
       style="display:inline;fill:#fbb353;fill-rule:evenodd;stroke:none"
       sodipodi:nodetypes="ccccccccccscccscccccccc" />
    <path
       id="path4"
       d="m 112.936,292.033 c 0.738,8.566 13.401,32.431 23.561,44.405 19.007,22.403 37.601,31.762 63.103,31.762 27.451,0 48.052,-11.289 67.911,-37.215 7.552,-9.858 20.417,-37.002 19.228,-40.568 -0.183,-0.549 -4.018,3.224 -5.244,5.161 -7.01327,9.47432 -15.80069,15.59129 -23.917,23.051 -5.761,5.972 -25.406,13.964 -40.806,16.599 -25.252,4.322 -60.62094,-4.13969 -74.854,-16.67 -7.82636,-6.07323 -21.1662,-19.16952 -27.006,-26.503 l -2.169,-2.255 0.193,2.233"
       inkscape:connector-curvature="0"
       style="display:inline;fill:#86acca;fill-rule:evenodd;stroke:none"
       sodipodi:nodetypes="ccsccccccccc" />
  </g>
  <flowRoot
     xml:space="preserve"
     id="flowRoot2013"
     style="font-style:normal;font-weight:normal;font-size:40px;line-height:1.25;font-family:sans-serif;letter-spacing:0px;word-spacing:0px;display:inline;fill:#000000;fill-opacity:1;stroke:none"
     transform="translate(24.025429,-169)"><flowRegion
       id="flowRegion2015"><rect
         id="rect2017"
         width="284.41525"
         height="86.949135"
         x="31.805084"
         y="250.09322" /></flowRegion><flowPara
       id="flowPara2019"
       style="font-size:26.66666603px;line-height:1.25">Umami</flowPara></flowRoot>  <text
     xml:space="preserve"
     style="font-style:normal;font-weight:normal;font-size:40px;line-height:1.25;font-family:sans-serif;letter-spacing:0px;word-spacing:0px;display:inline;fill:#000000;fill-opacity:1;stroke:none"
     x="65.898308"
     y="42.194923"
     id="text2023"><tspan
       sodipodi:role="line"
       id="tspan2021"
       x="65.898308"
       y="42.194923"
       style="font-size:26.66666603px">Bitter</tspan></text>
  <text
     xml:space="preserve"
     style="font-style:normal;font-weight:normal;font-size:40px;line-height:1.25;font-family:sans-serif;letter-spacing:0px;word-spacing:0px;display:inline;fill:#000000;fill-opacity:1;stroke:none"
     x="-120.41599"
     y="35.397831"
     id="text2027"
     transform="rotate(-90)"><tspan
       sodipodi:role="line"
       id="tspan2025"
       x="-120.41599"
       y="35.397831"
       style="font-size:26.66666603px">Sauer</tspan></text>
  <text
     xml:space="preserve"
     style="font-style:normal;font-weight:normal;font-size:40px;line-height:1.25;font-family:sans-serif;letter-spacing:0px;word-spacing:0px;display:inline;fill:#000000;fill-opacity:1;stroke:none"
     x="42.263184"
     y="-167.00073"
     id="text2031"
     transform="rotate(90)"><tspan
       sodipodi:role="line"
       id="tspan2029"
       x="42.263184"
       y="-167.00073"
       style="font-size:26.66666603px">Sauer</tspan></text>
  <text
     xml:space="preserve"
     style="font-style:normal;font-weight:normal;font-size:40px;line-height:1.25;font-family:sans-serif;letter-spacing:0px;word-spacing:0px;display:inline;fill:#000000;fill-opacity:1;stroke:none"
     x="78.254234"
     y="186.80508"
     id="text2035"><tspan
       sodipodi:role="line"
       id="tspan2033"
       x="78.254234"
       y="186.80508"
       style="font-size:26.66666603px">Süß</tspan></text>
  <text
     xml:space="preserve"
     style="font-style:normal;font-weight:normal;font-size:40px;line-height:1.25;font-family:sans-serif;letter-spacing:0px;word-spacing:0px;display:inline;fill:#000000;fill-opacity:1;stroke:none"
     x="72.305092"
     y="221.35596"
     id="text2039"><tspan
       sodipodi:role="line"
       id="tspan2037"
       x="72.305092"
       y="221.35596"
       style="font-size:21.33333397px">Salzig</tspan></text>
</svg>
