<?xml version="1.0" encoding="UTF-8" standalone="no"?>
<!-- Created with Inkscape (http://www.inkscape.org/) -->

<svg
   xmlns:dc="http://purl.org/dc/elements/1.1/"
   xmlns:cc="http://creativecommons.org/ns#"
   xmlns:rdf="http://www.w3.org/1999/02/22-rdf-syntax-ns#"
   xmlns:svg="http://www.w3.org/2000/svg"
   xmlns="http://www.w3.org/2000/svg"
   xmlns:sodipodi="http://sodipodi.sourceforge.net/DTD/sodipodi-0.dtd"
   xmlns:inkscape="http://www.inkscape.org/namespaces/inkscape"
   width="100mm"
   height="54mm"
   viewBox="0 0 100 54"
   version="1.1"
   id="svg13430"
   inkscape:version="0.92.5 (2060ec1f9f, 2020-04-08)"
   sodipodi:docname="Neurowissenschaften-neuron.svg"
   inkscape:export-filename="/home/robert/Dokumente/Dokumente/Universität/Informatik(Github)/Assets/Neurowissenschaften-neuron.png"
   inkscape:export-xdpi="300"
   inkscape:export-ydpi="300">
  <title
     id="title13975">Neurowissenschaften Neuron</title>
  <defs
     id="defs13424">
    <marker
       inkscape:isstock="true"
       style="overflow:visible"
       id="marker14650"
       refX="0"
       refY="0"
       orient="auto"
       inkscape:stockid="Arrow1Lend">
      <path
         transform="matrix(-0.8,0,0,-0.8,-10,0)"
         style="fill:#000000;fill-opacity:1;fill-rule:evenodd;stroke:#000000;stroke-width:1.00000003pt;stroke-opacity:1"
         d="M 0,0 5,-5 -12.5,0 5,5 Z"
         id="path14648"
         inkscape:connector-curvature="0" />
    </marker>
    <marker
       inkscape:stockid="Arrow1Lend"
       orient="auto"
       refY="0"
       refX="0"
       id="marker14554"
       style="overflow:visible"
       inkscape:isstock="true"
       inkscape:collect="always">
      <path
         id="path14552"
         d="M 0,0 5,-5 -12.5,0 5,5 Z"
         style="fill:#000000;fill-opacity:1;fill-rule:evenodd;stroke:#000000;stroke-width:1.00000003pt;stroke-opacity:1"
         transform="matrix(-0.8,0,0,-0.8,-10,0)"
         inkscape:connector-curvature="0" />
    </marker>
    <marker
       inkscape:isstock="true"
       style="overflow:visible"
       id="marker14478"
       refX="0"
       refY="0"
       orient="auto"
       inkscape:stockid="Arrow1Lstart">
      <path
         transform="matrix(0.8,0,0,0.8,10,0)"
         style="fill:#000000;fill-opacity:1;fill-rule:evenodd;stroke:#000000;stroke-width:1.00000003pt;stroke-opacity:1"
         d="M 0,0 5,-5 -12.5,0 5,5 Z"
         id="path14476"
         inkscape:connector-curvature="0" />
    </marker>
    <marker
       inkscape:stockid="Arrow1Lstart"
       orient="auto"
       refY="0"
       refX="0"
       id="Arrow1Lstart"
       style="overflow:visible"
       inkscape:isstock="true"
       inkscape:collect="always">
      <path
         id="path1953"
         d="M 0,0 5,-5 -12.5,0 5,5 Z"
         style="fill:#000000;fill-opacity:1;fill-rule:evenodd;stroke:#000000;stroke-width:1.00000003pt;stroke-opacity:1"
         transform="matrix(0.8,0,0,0.8,10,0)"
         inkscape:connector-curvature="0" />
    </marker>
    <marker
       inkscape:isstock="true"
       style="overflow:visible"
       id="marker14340"
       refX="0"
       refY="0"
       orient="auto"
       inkscape:stockid="Arrow1Lend"
       inkscape:collect="always">
      <path
         transform="matrix(-0.8,0,0,-0.8,-10,0)"
         style="fill:#000000;fill-opacity:1;fill-rule:evenodd;stroke:#000000;stroke-width:1.00000003pt;stroke-opacity:1"
         d="M 0,0 5,-5 -12.5,0 5,5 Z"
         id="path14338"
         inkscape:connector-curvature="0" />
    </marker>
    <marker
       inkscape:stockid="Arrow1Lend"
       orient="auto"
       refY="0"
       refX="0"
       id="marker14282"
       style="overflow:visible"
       inkscape:isstock="true"
       inkscape:collect="always">
      <path
         id="path14280"
         d="M 0,0 5,-5 -12.5,0 5,5 Z"
         style="fill:#000000;fill-opacity:1;fill-rule:evenodd;stroke:#000000;stroke-width:1.00000003pt;stroke-opacity:1"
         transform="matrix(-0.8,0,0,-0.8,-10,0)"
         inkscape:connector-curvature="0" />
    </marker>
    <marker
       inkscape:isstock="true"
       style="overflow:visible"
       id="marker14236"
       refX="0"
       refY="0"
       orient="auto"
       inkscape:stockid="Arrow1Lend"
       inkscape:collect="always">
      <path
         transform="matrix(-0.8,0,0,-0.8,-10,0)"
         style="fill:#000000;fill-opacity:1;fill-rule:evenodd;stroke:#000000;stroke-width:1.00000003pt;stroke-opacity:1"
         d="M 0,0 5,-5 -12.5,0 5,5 Z"
         id="path14234"
         inkscape:connector-curvature="0" />
    </marker>
    <marker
       inkscape:isstock="true"
       style="overflow:visible"
       id="marker14188"
       refX="0"
       refY="0"
       orient="auto"
       inkscape:stockid="Arrow1Lend">
      <path
         transform="matrix(-0.8,0,0,-0.8,-10,0)"
         style="fill:#000000;fill-opacity:1;fill-rule:evenodd;stroke:#000000;stroke-width:1.00000003pt;stroke-opacity:1"
         d="M 0,0 5,-5 -12.5,0 5,5 Z"
         id="path14186"
         inkscape:connector-curvature="0" />
    </marker>
    <marker
       inkscape:isstock="true"
       style="overflow:visible"
       id="marker14148"
       refX="0"
       refY="0"
       orient="auto"
       inkscape:stockid="Arrow1Lend">
      <path
         transform="matrix(-0.8,0,0,-0.8,-10,0)"
         style="fill:#000000;fill-opacity:1;fill-rule:evenodd;stroke:#000000;stroke-width:1.00000003pt;stroke-opacity:1"
         d="M 0,0 5,-5 -12.5,0 5,5 Z"
         id="path14146"
         inkscape:connector-curvature="0" />
    </marker>
    <marker
       inkscape:stockid="Arrow1Lend"
       orient="auto"
       refY="0"
       refX="0"
       id="Arrow1Lend"
       style="overflow:visible"
       inkscape:isstock="true"
       inkscape:collect="always">
      <path
         id="path1956"
         d="M 0,0 5,-5 -12.5,0 5,5 Z"
         style="fill:#000000;fill-opacity:1;fill-rule:evenodd;stroke:#000000;stroke-width:1.00000003pt;stroke-opacity:1"
         transform="matrix(-0.8,0,0,-0.8,-10,0)"
         inkscape:connector-curvature="0" />
    </marker>
  </defs>
  <sodipodi:namedview
     id="base"
     pagecolor="#ffffff"
     bordercolor="#666666"
     borderopacity="1.0"
     inkscape:pageopacity="0.0"
     inkscape:pageshadow="2"
     inkscape:zoom="1.4"
     inkscape:cx="11.788189"
     inkscape:cy="238.74376"
     inkscape:document-units="mm"
     inkscape:current-layer="layer1"
     showgrid="false"
     inkscape:pagecheckerboard="true"
     inkscape:window-width="2488"
     inkscape:window-height="1376"
     inkscape:window-x="72"
     inkscape:window-y="228"
     inkscape:window-maximized="1" />
  <metadata
     id="metadata13427">
    <rdf:RDF>
      <cc:Work
         rdf:about="">
        <dc:format>image/svg+xml</dc:format>
        <dc:type
           rdf:resource="http://purl.org/dc/dcmitype/StillImage" />
        <dc:title>Neurowissenschaften Neuron</dc:title>
        <dc:creator>
          <cc:Agent>
            <dc:title>Robert Jeutter</dc:title>
          </cc:Agent>
        </dc:creator>
        <cc:license
           rdf:resource="http://creativecommons.org/licenses/by-nc-sa/4.0/" />
      </cc:Work>
      <cc:License
         rdf:about="http://creativecommons.org/licenses/by-nc-sa/4.0/">
        <cc:permits
           rdf:resource="http://creativecommons.org/ns#Reproduction" />
        <cc:permits
           rdf:resource="http://creativecommons.org/ns#Distribution" />
        <cc:requires
           rdf:resource="http://creativecommons.org/ns#Notice" />
        <cc:requires
           rdf:resource="http://creativecommons.org/ns#Attribution" />
        <cc:prohibits
           rdf:resource="http://creativecommons.org/ns#CommercialUse" />
        <cc:permits
           rdf:resource="http://creativecommons.org/ns#DerivativeWorks" />
        <cc:requires
           rdf:resource="http://creativecommons.org/ns#ShareAlike" />
      </cc:License>
    </rdf:RDF>
  </metadata>
  <g
     inkscape:label="Neuron"
     inkscape:groupmode="layer"
     id="layer1"
     transform="translate(0,-243)">
    <path
       style="fill:#5ffffd;fill-opacity:1;stroke:#000000;stroke-width:0.26458332px;stroke-linecap:butt;stroke-linejoin:miter;stroke-opacity:1"
       d="m 25.305132,271.21404 c 0.180579,-1.95823 -0.723916,-3.87753 -1.33635,-5.74628 -0.528249,-1.61187 -0.96813,-3.33444 -2.00452,-4.67722 -1.241282,-1.60825 -3.331453,-2.34943 -4.810852,-3.74177 -1.080239,-1.01667 -3.798877,-2.13141 -2.939965,-3.34087 0.890847,-1.25443 2.959896,0.94085 4.276314,1.73725 1.298084,0.78531 2.460902,1.8111 3.474503,2.93997 1.221624,1.36055 1.838469,3.19528 3.073598,4.54358 0.620307,0.67714 1.253073,1.98206 2.138156,1.73725 1.005031,-0.27799 0.903274,-1.91046 1.069081,-2.93996 0.240925,-1.49591 -0.379693,-3.04852 -0.133636,-4.54359 0.270084,-1.64106 0.465485,-3.60546 1.737252,-4.67721 0.554498,-0.46729 1.676071,-0.95975 2.138156,-0.40091 0.85393,1.03274 -1.175458,2.43448 -1.469983,3.74177 -0.284595,1.26321 -0.103131,2.59098 -0.267269,3.87541 -0.183838,1.43858 -0.860461,2.82723 -0.801809,4.27632 0.06162,1.52242 -0.273064,4.03094 1.202714,4.40993 1.861237,0.47798 3.058177,-2.47277 4.009043,-4.14266 0.753946,-1.32406 0.30336,-3.18001 1.202711,-4.40995 0.532388,-0.72808 1.549804,-2.01061 2.271792,-1.46998 1.376355,1.03062 -0.704324,3.4049 -1.469982,4.94448 -0.837094,1.68322 -2.87715,2.72179 -3.34087,4.54358 -0.243976,0.9585 -0.107963,2.09186 0.400904,2.93997 0.508866,0.84811 1.464346,1.43295 2.405428,1.73725 1.271525,0.41115 4.009041,0 4.009041,0 l 2.939965,-0.26728 6.013564,0.80182 8.018086,0.80182 7.884451,0.66815 5.34539,-0.66815 c 1.484434,-0.18555 4.3583,1.19062 4.744038,0.0334 0,0 0.26034,-1.11138 0.53454,-1.60362 0.169306,-0.30393 0.346148,-0.67013 0.66817,-0.80182 0.414362,-0.16945 1.100005,-0.24656 1.33635,0.13364 0.40186,0.64646 -0.641148,1.39412 -0.80181,2.13815 -0.141345,0.65458 -0.177405,1.33631 -0.13363,2.00454 0.04454,0.67994 0.711552,1.39804 0.4009,2.00451 -0.245384,0.47905 -0.98523,0.9021 -1.46998,0.66818 -0.330824,-0.15964 -0.164569,-0.7164 -0.26727,-1.06908 -0.157535,-0.54098 -0.386327,-0.57401 -0.53454,-1.60361 -0.08169,-0.56748 -3.176163,-0.63313 -3.668243,-0.57536 0,0 0.706694,0.89857 0.471637,1.22045 -0.380109,0.52051 -0.588896,1.20057 -0.623202,1.99473 -0.02079,0.48136 -0.186386,1.07246 0.125158,1.43999 0.257097,0.3033 0.819406,0.0839 1.155369,0.29651 0.203472,0.12878 0.505049,0.31869 0.461755,0.55557 -0.202854,1.10989 -1.864755,1.99706 -2.944439,1.66952 -0.243881,-0.074 -0.353965,-0.42844 -0.343467,-0.68308 0.0133,-0.32253 0.411624,-0.51738 0.504779,-0.82645 0.189079,-0.62732 0.04377,-1.3097 0.07307,-1.96424 0.0446,-0.99614 0.627911,-2.10873 0.156356,-2.98731 -0.1784,-0.33239 -0.607379,-0.48877 -0.974545,-0.57536 -1.240918,-0.29265 -3.815477,0.26799 -3.815477,0.26799 l -14.031651,-0.66818 -4.009043,-0.80182 -4.81085,-0.13364 c 0,0 -2.819276,0.46932 -3.87541,1.33636 -0.4783,0.39267 -0.709717,1.02741 -0.935442,1.60361 -0.449401,1.14717 -0.248764,2.5072 -0.80181,3.60815 -0.581244,1.15709 -1.380891,2.36089 -2.53906,2.93997 -1.158168,0.57908 -2.599937,0.49056 -3.875408,0.26726 -1.630567,-0.28547 -3.218985,-1.01169 -4.543581,-2.00451 -0.885382,-0.66362 -1.091627,-2.89833 -2.138156,-2.53907 -4.084009,1.04592 -4.400056,0.95422 -7.93146,2.16712 -2.88997,0.73301 -3.914695,1.02976 -5.744209,0.21955 -1.7981053,-0.7963 0.774356,-1.38901 2.722486,-1.12051 1.943627,0.26787 3.421624,-0.89518 5.360212,-1.19738 2.534497,-0.39509 2.77806,-0.93454 4.924798,-1.53876 2.223923,-0.62594 -4.34226,-1.58485 -6.548105,-2.27179 -2.073981,-0.64587 -4.382537,-0.68131 -6.280834,-1.73725 -0.6887013,-0.3831 -2.1016973,-0.90487 -1.7372513,-1.60362 0.864696,-1.65788 3.6730423,0.71829 5.4790253,1.20272 1.98657,0.53287 3.861089,1.47755 5.87993,1.87087 1.140153,0.22213 2.47868,0.8653 3.474503,0.26728 1.333857,-0.80102 1.728013,-2.72701 1.870884,-4.27633 z"
       id="path13988"
       inkscape:connector-curvature="0"
       sodipodi:nodetypes="sssssssssssssssssssssssscccccsssssssssssssssssssssssccccssssssccsssssssssss"
       inkscape:label="Axon" />
    <path
       style="fill:#5f04fd;fill-opacity:1;stroke:none;stroke-width:0.26458332px;stroke-linecap:butt;stroke-linejoin:miter;stroke-opacity:1"
       d="m 30.917791,274.82219 c -0.794047,-0.20041 -1.769006,0.289 -2.271792,0.93544 -0.386759,0.49726 -0.48064,1.27816 -0.267269,1.87089 0.224294,0.62307 0.815967,1.2325 1.469983,1.33636 0.964858,0.15322 2.255829,-0.31918 2.672696,-1.20272 0.21672,-0.45933 -0.168178,-1.01856 -0.400904,-1.46999 -0.290099,-0.56273 -0.588862,-1.31505 -1.202714,-1.46998 z"
       id="path13990"
       inkscape:connector-curvature="0"
       inkscape:label="Zellkern"
       sodipodi:nodetypes="sssssss" />
    <path
       style="fill:#e12146;fill-opacity:1;stroke:#000000;stroke-width:0.26458332px;stroke-linecap:butt;stroke-linejoin:miter;stroke-opacity:0.26506025"
       d="m 42.64424,274.92242 c 1.484109,0.0595 2.963472,0.17938 4.443357,0.30067 0.318199,-1.20913 0.456273,-2.15422 0.668174,-3.34087 l -4.443355,-0.43431 c -0.364802,1.30328 -0.7684,2.57246 -0.668176,3.47451 z"
       id="path13992"
       inkscape:connector-curvature="0"
       sodipodi:nodetypes="ccccc"
       inkscape:label="Schwann1" />
    <path
       style="fill:#e12146;fill-opacity:1;stroke:#000000;stroke-width:0.26458332px;stroke-linecap:butt;stroke-linejoin:miter;stroke-opacity:0.32771086"
       d="m 50.027561,272.34996 -0.233859,3.107 4.042449,0.33409 0.367496,-3.34087 z"
       id="path13994"
       inkscape:connector-curvature="0"
       inkscape:label="Schwann2" />
    <path
       style="fill:#e12146;fill-opacity:1;stroke:#000000;stroke-width:0.26458332px;stroke-linecap:butt;stroke-linejoin:miter;stroke-opacity:0.26506025"
       d="m 56.107942,272.71744 -0.100224,3.37428 5.612659,0.0668 -0.100227,-3.24064 z"
       id="path13996"
       inkscape:connector-curvature="0"
       inkscape:label="Schwann3" />
    <path
       style="fill:#e12146;fill-opacity:1;stroke:#000000;stroke-width:0.26458332px;stroke-linecap:butt;stroke-linejoin:miter;stroke-opacity:0.2795181"
       d="m 63.190585,273.3522 -0.03341,3.24065 4.610399,-0.16704 0.167045,-3.27406 -4.610399,0.20045 z"
       id="path13998"
       inkscape:connector-curvature="0"
       inkscape:label="Schwann4" />
  </g>
  <g
     id="g14108"
     inkscape:label="Pfeile"
     transform="translate(-8.5044643,-239.7872)">
    <path
       inkscape:connector-curvature="0"
       id="path14099"
       d="M 27.875743,282.06993 38.27009,273.94344"
       style="fill:none;stroke:#000000;stroke-width:0.16500001;stroke-linecap:butt;stroke-linejoin:miter;stroke-miterlimit:4;stroke-dasharray:none;stroke-opacity:1;marker-end:url(#marker14188)" />
    <path
       inkscape:connector-curvature="0"
       id="path14101"
       d="m 21.733631,257.69047 2.740327,-5.76413"
       style="fill:none;stroke:#000000;stroke-width:0.16500001;stroke-linecap:butt;stroke-linejoin:miter;stroke-miterlimit:4;stroke-dasharray:none;stroke-opacity:1;marker-end:url(#marker14148)" />
    <path
       inkscape:connector-curvature="0"
       id="path14103"
       d="m 19.560268,262.50967 -1.039435,6.61457"
       style="fill:none;stroke:#000000;stroke-width:0.16500001;stroke-linecap:butt;stroke-linejoin:miter;stroke-miterlimit:4;stroke-dasharray:none;stroke-opacity:1;marker-end:url(#Arrow1Lend)" />
    <path
       style="fill:none;stroke:#000000;stroke-width:0.16500001;stroke-linecap:butt;stroke-linejoin:miter;stroke-miterlimit:4;stroke-dasharray:none;stroke-opacity:1;marker-start:url(#marker14478);marker-end:url(#marker14554)"
       d="m 53.389135,271.01413 -3.401785,12.00074 9.881027,-11.27184"
       id="path14220"
       inkscape:connector-curvature="0" />
    <path
       style="fill:none;stroke:#000000;stroke-width:0.16500001;stroke-linecap:butt;stroke-linejoin:miter;stroke-miterlimit:4;stroke-dasharray:none;stroke-opacity:1;marker-start:url(#Arrow1Lstart);marker-end:url(#marker14340)"
       d="m 63.444645,272.85539 4.585336,11.71725 2.834823,-11.29204"
       id="path14222"
       inkscape:connector-curvature="0"
       sodipodi:nodetypes="ccc" />
    <path
       style="fill:none;stroke:#000000;stroke-width:0.16500001;stroke-linecap:butt;stroke-linejoin:miter;stroke-miterlimit:4;stroke-dasharray:none;stroke-opacity:1;marker-end:url(#marker14282)"
       d="m 85.280877,280.2273 -5.197173,-5.71688"
       id="path14224"
       inkscape:connector-curvature="0" />
    <path
       style="fill:none;stroke:#000000;stroke-width:0.16500001;stroke-linecap:butt;stroke-linejoin:miter;stroke-miterlimit:4;stroke-dasharray:none;stroke-opacity:1;marker-end:url(#marker14236)"
       d="m 89.107885,265.58073 -0.236234,0.18899 -3.260045,5.76413"
       id="path14226"
       inkscape:connector-curvature="0" />
    <path
       style="fill:none;stroke:#000000;stroke-width:0.16500001;stroke-linecap:butt;stroke-linejoin:miter;stroke-miterlimit:4;stroke-dasharray:none;stroke-opacity:1;marker-end:url(#marker14650)"
       d="m 64.822916,259.76934 -1.350593,11.24312"
       id="path14640"
       inkscape:connector-curvature="0"
       sodipodi:nodetypes="cc" />
  </g>
  <g
     id="g14077"
     inkscape:label="Texte"
     transform="translate(-8.5044643,-239.7872)">
    <text
       id="text14018"
       y="246.91814"
       x="27.734005"
       style="font-style:normal;font-variant:normal;font-weight:normal;font-stretch:normal;font-size:5.64444447px;line-height:1.25;font-family:sans-serif;-inkscape-font-specification:'sans-serif, Normal';font-variant-ligatures:normal;font-variant-caps:normal;font-variant-numeric:normal;font-feature-settings:normal;text-align:start;letter-spacing:0px;word-spacing:0px;writing-mode:lr-tb;text-anchor:start;fill:#000000;fill-opacity:1;stroke:none;stroke-width:0.26458332"
       xml:space="preserve"><tspan
         style="font-size:5.64444447px;stroke-width:0.26458332"
         y="246.91814"
         x="27.734005"
         id="tspan14016"
         sodipodi:role="line">Soma</tspan></text>
    <text
       id="text14022"
       y="261.423"
       x="11.150297"
       style="font-style:normal;font-variant:normal;font-weight:normal;font-stretch:normal;font-size:3.17499995px;line-height:1.25;font-family:sans-serif;-inkscape-font-specification:'sans-serif, Normal';font-variant-ligatures:normal;font-variant-caps:normal;font-variant-numeric:normal;font-feature-settings:normal;text-align:start;letter-spacing:0px;word-spacing:0px;writing-mode:lr-tb;text-anchor:start;fill:#000000;fill-opacity:1;stroke:none;stroke-width:0.26458332"
       xml:space="preserve"><tspan
         id="tspan14024"
         style="stroke-width:0.26458332"
         y="261.423"
         x="11.150297"
         sodipodi:role="line">Dentrit</tspan></text>
    <text
       id="text14030"
       y="286.60562"
       x="38.222843"
       style="font-style:normal;font-variant:normal;font-weight:normal;font-stretch:normal;font-size:3.17499995px;line-height:1.25;font-family:sans-serif;-inkscape-font-specification:'sans-serif, Normal';font-variant-ligatures:normal;font-variant-caps:normal;font-variant-numeric:normal;font-feature-settings:normal;text-align:start;letter-spacing:0px;word-spacing:0px;writing-mode:lr-tb;text-anchor:start;fill:#000000;fill-opacity:1;stroke:none;stroke-width:0.26458332"
       xml:space="preserve"><tspan
         style="stroke-width:0.26458332"
         y="286.60562"
         x="38.222843"
         id="tspan14028"
         sodipodi:role="line">Schwann'sche</tspan><tspan
         id="tspan14032"
         style="stroke-width:0.26458332"
         y="290.57437"
         x="38.222843"
         sodipodi:role="line">Zelle</tspan></text>
    <text
       id="text14036"
       y="287.31436"
       x="66.665558"
       style="font-style:normal;font-variant:normal;font-weight:normal;font-stretch:normal;font-size:3.17499995px;line-height:1.25;font-family:sans-serif;-inkscape-font-specification:'sans-serif, Normal';font-variant-ligatures:normal;font-variant-caps:normal;font-variant-numeric:normal;font-feature-settings:normal;text-align:start;letter-spacing:0px;word-spacing:0px;writing-mode:lr-tb;text-anchor:start;fill:#000000;fill-opacity:1;stroke:none;stroke-width:0.26458332"
       xml:space="preserve"><tspan
         style="stroke-width:0.26458332"
         y="287.31436"
         x="66.665558"
         id="tspan14034"
         sodipodi:role="line">Ranvier'scher</tspan><tspan
         id="tspan14038"
         style="stroke-width:0.26458332"
         y="291.28311"
         x="66.665558"
         sodipodi:role="line">Schnürring</tspan></text>
    <text
       id="text14042"
       y="281.55023"
       x="85.51712"
       style="font-style:normal;font-variant:normal;font-weight:normal;font-stretch:normal;font-size:3.17499995px;line-height:1.25;font-family:sans-serif;-inkscape-font-specification:'sans-serif, Normal';font-variant-ligatures:normal;font-variant-caps:normal;font-variant-numeric:normal;font-feature-settings:normal;text-align:start;letter-spacing:0px;word-spacing:0px;writing-mode:lr-tb;text-anchor:start;fill:#000000;fill-opacity:1;stroke:none;stroke-width:0.26458332"
       xml:space="preserve"><tspan
         style="stroke-width:0.26458332"
         y="281.55023"
         x="85.51712"
         id="tspan14040"
         sodipodi:role="line">Kolatterale</tspan></text>
    <text
       id="text14046"
       y="266.24216"
       x="88.588165"
       style="font-style:normal;font-variant:normal;font-weight:normal;font-stretch:normal;font-size:3.17499995px;line-height:1.25;font-family:sans-serif;-inkscape-font-specification:'sans-serif, Normal';font-variant-ligatures:normal;font-variant-caps:normal;font-variant-numeric:normal;font-feature-settings:normal;text-align:start;letter-spacing:0px;word-spacing:0px;writing-mode:lr-tb;text-anchor:start;fill:#000000;fill-opacity:1;stroke:none;stroke-width:0.26458332"
       xml:space="preserve"><tspan
         style="stroke-width:0.26458332"
         y="266.24216"
         x="88.588165"
         id="tspan14044"
         sodipodi:role="line">Terminale,</tspan><tspan
         id="tspan14052"
         style="stroke-width:0.26458332"
         y="270.21091"
         x="88.588165"
         sodipodi:role="line">Synapse</tspan></text>
    <text
       id="text14050"
       y="285.56622"
       x="18.615326"
       style="font-style:normal;font-variant:normal;font-weight:normal;font-stretch:normal;font-size:3.17499995px;line-height:1.25;font-family:sans-serif;-inkscape-font-specification:'sans-serif, Normal';font-variant-ligatures:normal;font-variant-caps:normal;font-variant-numeric:normal;font-feature-settings:normal;text-align:start;letter-spacing:0px;word-spacing:0px;writing-mode:lr-tb;text-anchor:start;fill:#000000;fill-opacity:1;stroke:none;stroke-width:0.26458332"
       xml:space="preserve"><tspan
         style="stroke-width:0.26458332"
         y="285.56622"
         x="18.615326"
         id="tspan14048"
         sodipodi:role="line">Zellkern</tspan></text>
    <text
       id="text14056"
       y="258.72992"
       x="59.909225"
       style="font-style:normal;font-variant:normal;font-weight:normal;font-stretch:normal;font-size:5.64444447px;line-height:1.25;font-family:sans-serif;-inkscape-font-specification:'sans-serif, Normal';font-variant-ligatures:normal;font-variant-caps:normal;font-variant-numeric:normal;font-feature-settings:normal;text-align:start;letter-spacing:0px;word-spacing:0px;writing-mode:lr-tb;text-anchor:start;fill:#000000;fill-opacity:1;stroke:none;stroke-width:0.26458332"
       xml:space="preserve"><tspan
         style="font-size:5.64444447px;stroke-width:0.26458332"
         y="258.72992"
         x="59.909225"
         id="tspan14054"
         sodipodi:role="line">Axon</tspan></text>
  </g>
</svg>
